<svg xmlns="http://www.w3.org/2000/svg" width="298" height="406" fill="none" viewBox="0 0 298 406"><path fill="#1B242E" d="M8 0.125H290C294.349 0.125 297.875 3.65076 297.875 8V384.686C297.875 386.775 297.045 388.778 295.568 390.255L282.255 403.568C280.778 405.045 278.775 405.875 276.686 405.875H8C3.65076 405.875 0.125 402.349 0.125 398V8.00001C0.125 3.65077 3.65076 0.125 8 0.125Z"/><path fill="url(#paint0_linear_204_52)" fill-opacity=".5" d="M8 0.125H290C294.349 0.125 297.875 3.65076 297.875 8V384.686C297.875 386.775 297.045 388.778 295.568 390.255L282.255 403.568C280.778 405.045 278.775 405.875 276.686 405.875H8C3.65076 405.875 0.125 402.349 0.125 398V8.00001C0.125 3.65077 3.65076 0.125 8 0.125Z"/><path stroke="#4C4C4C" stroke-width=".25" d="M8 0.125H290C294.349 0.125 297.875 3.65076 297.875 8V384.686C297.875 386.775 297.045 388.778 295.568 390.255L282.255 403.568C280.778 405.045 278.775 405.875 276.686 405.875H8C3.65076 405.875 0.125 402.349 0.125 398V8.00001C0.125 3.65077 3.65076 0.125 8 0.125Z"/><defs><linearGradient id="paint0_linear_204_52" x1="149" x2="149" y1="0" y2="406" gradientUnits="userSpaceOnUse"><stop stop-opacity="0"/><stop offset="1" stop-color="#121518"/></linearGradient></defs></svg>